<svg xmlns="http://www.w3.org/2000/svg" viewBox="0 0 100 100" preserveAspectRatio="none"><rect x="0" y="0" width="100" height="76.92" fill="#fff"/><rect x="0.00" y="76.92" width="2.94" height="3.85" fill="#fff"/><rect x="2.94" y="76.92" width="2.94" height="3.85" fill="#fff"/><rect x="5.88" y="76.92" width="2.94" height="3.85" fill="#fff"/><rect x="8.82" y="76.92" width="2.94" height="3.85" fill="#fff"/><rect x="11.76" y="76.92" width="2.94" height="3.85" fill="#fff"/><rect x="14.71" y="76.92" width="2.94" height="3.85" fill="#fff"/><rect x="17.65" y="76.92" width="2.94" height="3.85" fill="#fff"/><rect x="20.59" y="76.92" width="2.94" height="3.85" fill="#fff"/><rect x="23.53" y="76.92" width="2.94" height="3.85" fill="#fff"/><rect x="26.47" y="76.92" width="2.94" height="3.85" fill="#fff"/><rect x="29.41" y="76.92" width="2.94" height="3.85" fill="#fff"/><rect x="32.35" y="76.92" width="2.94" height="3.85" fill="#fff"/><rect x="35.29" y="76.92" width="2.94" height="3.85" fill="#fff"/><rect x="38.24" y="76.92" width="2.94" height="3.85" fill="#fff"/><rect x="41.18" y="76.92" width="2.94" height="3.85" fill="#fff"/><rect x="44.12" y="76.92" width="2.94" height="3.85" fill="#fff"/><rect x="47.06" y="76.92" width="2.94" height="3.85" fill="#fff"/><rect x="50.00" y="76.92" width="2.94" height="3.85" fill="#fff"/><rect x="52.94" y="76.92" width="2.94" height="3.85" fill="#fff"/><rect x="55.88" y="76.92" width="2.94" height="3.85" fill="#fff"/><rect x="58.82" y="76.92" width="2.94" height="3.85" fill="#fff"/><rect x="61.76" y="76.92" width="2.94" height="3.85" fill="#fff"/><rect x="64.71" y="76.92" width="2.94" height="3.85" fill="#fff"/><rect x="67.65" y="76.92" width="2.94" height="3.85" fill="#fff"/><rect x="70.59" y="76.92" width="2.94" height="3.85" fill="#fff"/><rect x="73.53" y="76.92" width="2.94" height="3.85" fill="#fff"/><rect x="76.47" y="76.92" width="2.94" height="3.85" fill="#fff"/><rect x="79.41" y="76.92" width="2.94" height="3.85" fill="#fff"/><rect x="82.35" y="76.92" width="2.94" height="3.85" fill="#fff"/><rect x="85.29" y="76.92" width="2.94" height="3.85" fill="#fff"/><rect x="88.24" y="76.92" width="2.94" height="3.85" fill="#fff"/><rect x="91.18" y="76.92" width="2.94" height="3.85" fill="#fff"/><rect x="94.12" y="76.92" width="2.94" height="3.85" fill="#fff"/><rect x="97.06" y="76.92" width="2.94" height="3.85" fill="#fff"/><rect x="0.00" y="80.77" width="2.94" height="3.85" fill="#fff"/><rect x="2.94" y="80.77" width="2.94" height="3.85" fill="#fff"/><rect x="5.88" y="80.77" width="2.94" height="3.85" fill="#fff"/><rect x="8.82" y="80.77" width="2.94" height="3.85" fill="#fff"/><rect x="11.76" y="80.77" width="2.94" height="3.85" fill="#fff"/><rect x="14.71" y="80.77" width="2.94" height="3.85" fill="#fff"/><rect x="17.65" y="80.77" width="2.94" height="3.85" fill="#fff"/><rect x="20.59" y="80.77" width="2.94" height="3.85" fill="#fff"/><rect x="23.53" y="80.77" width="2.94" height="3.85" fill="#fff"/><rect x="26.47" y="80.77" width="2.94" height="3.85" fill="#fff"/><rect x="29.41" y="80.77" width="2.94" height="3.85" fill="#fff"/><rect x="32.35" y="80.77" width="2.94" height="3.85" fill="#fff"/><rect x="35.29" y="80.77" width="2.94" height="3.85" fill="#fff"/><rect x="38.24" y="80.77" width="2.94" height="3.85" fill="#fff"/><rect x="41.18" y="80.77" width="2.94" height="3.85" fill="#fff"/><rect x="44.12" y="80.77" width="2.94" height="3.85" fill="#fff"/><rect x="50.00" y="80.77" width="2.94" height="3.85" fill="#fff"/><rect x="52.94" y="80.77" width="2.94" height="3.85" fill="#fff"/><rect x="55.88" y="80.77" width="2.94" height="3.85" fill="#fff"/><rect x="58.82" y="80.77" width="2.94" height="3.85" fill="#fff"/><rect x="61.76" y="80.77" width="2.94" height="3.85" fill="#fff"/><rect x="64.71" y="80.77" width="2.94" height="3.85" fill="#fff"/><rect x="67.65" y="80.77" width="2.94" height="3.85" fill="#fff"/><rect x="70.59" y="80.77" width="2.94" height="3.85" fill="#fff"/><rect x="73.53" y="80.77" width="2.94" height="3.85" fill="#fff"/><rect x="76.47" y="80.77" width="2.94" height="3.85" fill="#fff"/><rect x="79.41" y="80.77" width="2.94" height="3.85" fill="#fff"/><rect x="82.35" y="80.77" width="2.94" height="3.85" fill="#fff"/><rect x="85.29" y="80.77" width="2.94" height="3.85" fill="#fff"/><rect x="88.24" y="80.77" width="2.94" height="3.85" fill="#fff"/><rect x="91.18" y="80.77" width="2.94" height="3.85" fill="#fff"/><rect x="94.12" y="80.77" width="2.94" height="3.85" fill="#fff"/><rect x="0.34" y="85.06" width="2.26" height="2.95" fill="#fff"/><rect x="3.30" y="85.09" width="2.22" height="2.90" fill="#fff"/><rect x="6.39" y="85.28" width="1.92" height="2.51" fill="#fff"/><rect x="11.96" y="84.88" width="2.54" height="3.33" fill="#fff"/><rect x="14.72" y="84.63" width="2.92" height="3.82" fill="#fff"/><rect x="17.73" y="84.73" width="2.77" height="3.62" fill="#fff"/><rect x="20.62" y="84.66" width="2.88" height="3.77" fill="#fff"/><rect x="26.60" y="84.78" width="2.69" height="3.51" fill="#fff"/><rect x="29.86" y="85.20" width="2.04" height="2.67" fill="#fff"/><rect x="32.58" y="84.92" width="2.48" height="3.24" fill="#fff"/><rect x="35.75" y="85.21" width="2.03" height="2.66" fill="#fff"/><rect x="44.33" y="84.89" width="2.51" height="3.29" fill="#fff"/><rect x="47.51" y="85.21" width="2.03" height="2.66" fill="#fff"/><rect x="53.03" y="84.73" width="2.76" height="3.61" fill="#fff"/><rect x="56.00" y="84.77" width="2.70" height="3.53" fill="#fff"/><rect x="59.13" y="85.01" width="2.33" height="3.05" fill="#fff"/><rect x="61.77" y="84.62" width="2.94" height="3.84" fill="#fff"/><rect x="64.90" y="84.86" width="2.56" height="3.35" fill="#fff"/><rect x="68.14" y="85.26" width="1.96" height="2.56" fill="#fff"/><rect x="70.85" y="84.96" width="2.41" height="3.15" fill="#fff"/><rect x="73.88" y="85.07" width="2.25" height="2.94" fill="#fff"/><rect x="76.93" y="85.22" width="2.02" height="2.64" fill="#fff"/><rect x="88.44" y="84.88" width="2.53" height="3.31" fill="#fff"/><rect x="91.50" y="85.04" width="2.29" height="2.99" fill="#fff"/><rect x="94.15" y="84.66" width="2.87" height="3.76" fill="#fff"/><rect x="97.14" y="84.72" width="2.77" height="3.63" fill="#fff"/><rect x="0.03" y="88.50" width="2.89" height="3.78" fill="#fff"/><rect x="3.02" y="88.56" width="2.79" height="3.64" fill="#fff"/><rect x="6.07" y="88.71" width="2.57" height="3.36" fill="#fff"/><rect x="9.27" y="89.05" width="2.04" height="2.67" fill="#fff"/><rect x="14.84" y="88.63" width="2.68" height="3.51" fill="#fff"/><rect x="17.83" y="88.71" width="2.57" height="3.36" fill="#fff"/><rect x="21.03" y="89.03" width="2.07" height="2.70" fill="#fff"/><rect x="26.72" y="88.79" width="2.44" height="3.19" fill="#fff"/><rect x="29.46" y="88.53" width="2.84" height="3.71" fill="#fff"/><rect x="32.49" y="88.64" width="2.67" height="3.49" fill="#fff"/><rect x="38.25" y="88.48" width="2.92" height="3.82" fill="#fff"/><rect x="47.34" y="88.83" width="2.38" height="3.11" fill="#fff"/><rect x="50.27" y="88.82" width="2.40" height="3.14" fill="#fff"/><rect x="61.95" y="88.71" width="2.56" height="3.35" fill="#fff"/><rect x="65.10" y="88.98" width="2.15" height="2.81" fill="#fff"/><rect x="73.64" y="88.61" width="2.71" height="3.55" fill="#fff"/><rect x="94.38" y="88.81" width="2.41" height="3.15" fill="#fff"/><rect x="97.07" y="88.48" width="2.91" height="3.81" fill="#fff"/><rect x="0.14" y="92.50" width="2.65" height="3.47" fill="#fff"/><rect x="26.59" y="92.46" width="2.71" height="3.54" fill="#fff"/><rect x="29.52" y="92.45" width="2.73" height="3.57" fill="#fff"/><rect x="50.34" y="92.75" width="2.26" height="2.96" fill="#fff"/><rect x="65.11" y="92.84" width="2.13" height="2.78" fill="#fff"/><rect x="88.30" y="92.39" width="2.81" height="3.68" fill="#fff"/><rect x="91.64" y="92.92" width="2.01" height="2.63" fill="#fff"/><rect x="97.48" y="92.86" width="2.09" height="2.73" fill="#fff"/></svg>